PathFileType	4	(X/Y/Z)	62_1_39_p0_0-559_filt_butterworth.trc
DataRate	CameraRate	NumFrames	NumMarkers	Units	OrigDataRate	OrigDataStartFrame	OrigNumFrames
50.0	50.0	7	27	m	50.0	69	559
Frame#	Time	RHip			RKnee			RAnkle			RBigToe			RSmallToe			RHeel			LHip			LKnee			LAnkle			LBigToe			LSmallToe			LHeel			Neck			Head			Nose			RShoulder			RElbow			RWrist			RThumb			RIndex			RPinky			LShoulder			LElbow			LWrist			LThumb			LIndex			LPinky			
		X1	Y1	Z1	X2	Y2	Z2	X3	Y3	Z3	X4	Y4	Z4	X5	Y5	Z5	X6	Y6	Z6	X7	Y7	Z7	X8	Y8	Z8	X9	Y9	Z9	X10	Y10	Z10	X11	Y11	Z11	X12	Y12	Z12	X13	Y13	Z13	X14	Y14	Z14	X15	Y15	Z15	X16	Y16	Z16	X17	Y17	Z17	X18	Y18	Z18	X19	Y19	Z19	X20	Y20	Z20	X21	Y21	Z21	X22	Y22	Z22	X23	Y23	Z23	X24	Y24	Z24	X25	Y25	Z25	X26	Y26	Z26	X27	Y27	Z27	
69	1.38	0.3280116674904752	0.43508307885999575	0.2919146090868929	0.3306347806299016	0.7368033032650253	0.5784188325836676	0.3340022468312248	0.982650279776716	0.8604225332318768	0.3015354827377063	0.9134882315731707	0.9443124700391397	0.347779016114623	0.8814624749222296	0.9360106895721684	0.3335829816072361	1.0998016766288736	0.8675680460138967	0.14524027916852567	0.48856354837284766	0.24361995458898772	0.15882249858460795	0.771680644171541	0.5602986278598853	0.16659703813762677	1.0806020059455244	0.8332287054606939	0.11988869145328705	0.9200187739796564	0.9160453146399595	0.08231113896186462	0.9839264453694583	0.8842355379534022	0.19733690505923823	1.1421165506144524	0.841486447314418	0.23397802254792566	0.11690682907515512	-0.19492366641212022	0.2300030877588314	-0.052338773317973736	-0.3733153305413158	0.22230102630341797	-0.02095338591385754	-0.22409260547224072	0.38982003226190776	0.15964246244223068	-0.11229124553047577	0.4503120410184603	0.3299415466612591	0.11316992723880494	0.38503286729533837	0.4114135940854077	0.33601038393863275	0.3114700740571221	0.4359713471980865	0.4233085936169936	0.3181181197897306	0.4445709905363723	0.4352207397152146	0.36543195429558106	0.5122405807204279	0.41346426333239217	0.08760634366873278	0.2366330058459617	-0.1798061368262769	0.04236406296019257	0.3749682508181616	0.056263146781005954	0.055986150957709	0.4868835287277221	0.2735374985641119	0.09266559922596151	0.4756542866265069	0.3785127486143672	0.08034356615402376	0.480924570720061	0.4029674562547092	0.052433098151469654	0.5573496219752889	0.36546750078948625
70	1.4	0.3297668482922733	0.43765651297601654	0.2895912983848468	0.3335455618898961	0.7464450368548439	0.5781185575723111	0.3336593771744177	0.982485270834649	0.8603277491789671	0.3018187908841327	0.9132164166096381	0.9442108852825026	0.3476524192507647	0.8843819449234744	0.9374848327046219	0.3307803711663396	1.0935572366561566	0.8678150905258732	0.14465288481972788	0.48893646759161513	0.2435173034530586	0.1588213605102232	0.7715691906656459	0.5599773408040309	0.166595510005431	1.0805997602101798	0.8332274922491139	0.11987888673266159	0.920023659991074	0.9161367643166745	0.08456901665353618	0.9897654767535211	0.8835899119396764	0.19564621432098672	1.1380784161727928	0.8416239543912172	0.23399416827178765	0.11698958479775909	-0.19488151319015934	0.23001395927954427	-0.052494429554734295	-0.37312164806409154	0.222274659433543	-0.020522662104149915	-0.2244272859130187	0.39141148494898237	0.15962234241636103	-0.11463620579848341	0.4502788505806489	0.3349897715418394	0.10890993623347386	0.3839796891554673	0.412532461869794	0.33556105364299055	0.30855506020156204	0.43560835553465727	0.42361809803065364	0.31619755441179725	0.4446686480073694	0.437067272383021	0.3636679709129386	0.5120548269655459	0.41226328796983774	0.0874636190669187	0.2363833449209748	-0.18038123118203012	0.043531448491469726	0.3754542567131466	0.05680889330016168	0.05594780238056562	0.48672238370108767	0.2733987625066405	0.09270880329093396	0.47559189050539713	0.3783969488032948	0.08029865941682285	0.4796957077356633	0.4009143361955353	0.05242987179478453	0.5571219912684339	0.3654949084638596
71	1.42	0.33200378322886415	0.44003411763206246	0.2858199975600717	0.3371743310162425	0.7562735492359408	0.5771330645086004	0.3321404236833602	0.9823675580124472	0.860188575965387	0.3027823452116697	0.9120710021363092	0.9446129456050291	0.34754640105882423	0.8878875116159552	0.9399230193930305	0.328386184126206	1.088002552953165	0.8672595875224671	0.14431775422092563	0.4892392785792427	0.24341706880361674	0.1588857190064699	0.7713357485372776	0.5592858358326623	0.16658096607822157	1.0805842671608497	0.8332179236108178	0.11988071664709027	0.9200343339097238	0.9161674714362361	0.08612781649591969	0.9938321921741585	0.8831292082239219	0.19316910830296657	1.1321347446191297	0.8420634861371683	0.23396595259668831	0.11682388539464042	-0.19509002870884756	0.22999381132277463	-0.05248369650459868	-0.37308621399202796	0.22198027425103006	-0.01659017799103525	-0.22692727333203525	0.39365782666978555	0.16076529498347952	-0.11688261084228208	0.4502911620753613	0.33697312447896355	0.10632558760140425	0.38338075242207226	0.4124015453892623	0.33552787179639515	0.3057130408721534	0.4354305278452977	0.42395282436847853	0.31432345766696074	0.44588151137296816	0.438049898875537	0.3632976085310475	0.5124023865322911	0.41169995751106203	0.08733982685064472	0.2362130432382192	-0.18013550980533188	0.043932282778507435	0.3762000548412921	0.056979651601175386	0.055851650497600755	0.48688490142908936	0.2734821823629684	0.09266426627654119	0.4756341361279947	0.3785048123699719	0.08028757317037112	0.4787130421763511	0.39992342652467205	0.05243030312981186	0.5572637460926284	0.36550633019990975
72	1.44	0.3334787275842487	0.44138243866603855	0.28237491480265225	0.33965464989955074	0.761348788226217	0.5762202965877922	0.3299009490724214	0.9827849557817172	0.8603746694521353	0.3040581737881701	0.9103692727747028	0.94543446404074	0.3477385267383897	0.8900010567486254	0.9417628951747622	0.32725579777137526	1.0850656772249792	0.8660983399849529	0.14435005886433383	0.4892534782435089	0.24339732589240448	0.15895087759498272	0.7711144875291551	0.5588424746230494	0.166553383693575	1.080558865396371	0.8332051549926832	0.11989341185542608	0.9200461981668521	0.9161672588925891	0.08650070520613726	0.9948624296346626	0.8830447691911012	0.19141482879643765	1.127957912241615	0.8426775492797438	0.2338469743605646	0.11611325343608618	-0.19584620710547226	0.2299585150061707	-0.05253192589241902	-0.3730844546968334	0.2214549534977123	-0.008963287256009235	-0.23178620215033902	0.39518725728667614	0.16288507134329458	-0.11892058200191033	0.45032630215751307	0.33310192741570926	0.10659665100280205	0.38230026455311883	0.4121864142277617	0.33549800598305307	0.30427832222344575	0.43543229843491865	0.42410945924753685	0.313032270893009	0.44596130007652257	0.4372802285237013	0.3631997450901485	0.5124812031970898	0.41137092325003044	0.08734595746726681	0.23625199341340247	-0.17995502608944253	0.04445198389038048	0.37660949121291826	0.056491357296066004	0.055846340283197474	0.4871262375491012	0.2734938474563124	0.09261055455526832	0.4755285459433731	0.378535083396516	0.0803215504004916	0.4781117383993658	0.39986321461370966	0.05245612360829717	0.5575218257125872	0.3654556949055412
73	1.46	0.3338279474314116	0.44180871150085094	0.28061048979133124	0.3402587418950514	0.7622403661771169	0.5761623062508983	0.32833027821451666	0.9837908522268924	0.8612991954341155	0.304316603665172	0.9080285166567639	0.9462426251394911	0.3480331757089545	0.8893686642597491	0.9421643820997123	0.3271337740146475	1.0844856881805998	0.8652313546635735	0.1444402627034717	0.4891311839873486	0.24340349722291388	0.1589830894655943	0.7709209750243103	0.5589196883394526	0.16652657669527512	1.0805365553784416	0.8332011880410225	0.11990366545346501	0.9200321548060435	0.916172078441503	0.0863374022773474	0.9944734103626154	0.8831452635133301	0.19095298232765448	1.1269500553859302	0.8430886874280555	0.2336802399576708	0.11499036931043029	-0.19686562325923118	0.22993542007474121	-0.052816143682049406	-0.3729199166437124	0.22096379663690585	-0.001539925259656444	-0.2368399916957191	0.39552825637838324	0.16449955427057447	-0.12034772948462918	0.45032597222836757	0.3261476146253288	0.108407938521209	0.3807391434438285	0.41185958260258093	0.335486531859021	0.30413951675345396	0.43530097700515313	0.4238027935209656	0.3125657874270331	0.4445493626950497	0.4350421972303846	0.3629277272414378	0.5112171449256543	0.41014558208481644	0.08738674770112888	0.23633570533456327	-0.17994418278527793	0.045774275440581755	0.37697612722975515	0.056281670486794895	0.05586598578684998	0.4872996381436149	0.2733919964455731	0.09255462738413925	0.47539967077961337	0.378482398978745	0.0802319342544055	0.47897794566581	0.399626814885857	0.052458602735192275	0.5577449401634197	0.36537196785011633
74	1.48	0.33368194301334303	0.4421159723275453	0.2805248750783799	0.33983140177503635	0.7622578947126083	0.5767934592628917	0.32789957191415103	0.9847112840332655	0.8626557372440671	0.3025621607400277	0.9038398232522484	0.9467298532224533	0.3481461746999848	0.886566561997037	0.9420043324843417	0.3273859507285814	1.084979320465668	0.8650354822753558	0.14445956877471228	0.48904317988707047	0.24340189040387927	0.1589946553676165	0.7707759191336934	0.5589589804426938	0.1665153533988299	1.0805423530426586	0.8332278986745701	0.11988410029553072	0.9199347767537636	0.9161788240489946	0.08620481347808664	0.9940779356594212	0.883187619808293	0.19110329764334588	1.1274419791297778	0.8431766888254206	0.23357819377847078	0.11394826614181217	-0.19742010529686144	0.22991804596832602	-0.05317377733183155	-0.37270169360453065	0.2202691504332807	0.001898247470768782	-0.23996558385672823	0.395327606644145	0.16486963943993507	-0.12078652879413601	0.4502163583854071	0.3210045717933106	0.1098228361554171	0.37963433688843295	0.4115115388140089	0.33551323510100467	0.3043666639870811	0.43480451121322883	0.42286571549453705	0.31252205523890214	0.4427881772320419	0.4326991066879353	0.36257162403337684	0.5092323574179255	0.40837885093919546	0.08740298157223929	0.23638563799852952	-0.17997048409073768	0.04745191389346257	0.37775316514412555	0.0569418664393566	0.055865386418529395	0.4873215994308062	0.27322423304194987	0.09244114719877175	0.4756311049782441	0.3786554582757183	0.07978253734687608	0.48278493458805793	0.39862448136966744	0.052403248495372215	0.5579137835463317	0.36532322470014456
75	1.5	0.3335547913537611	0.4424021306295015	0.2817748084779501	0.33913212845950524	0.7626611644964817	0.5775021747049837	0.32789994570662184	0.9850229383980098	0.8635993338753893	0.2997259007272119	0.8984437426781193	0.9468716012595914	0.34812118106093753	0.8839007991875039	0.9423680324945816	0.3275633457040349	1.0853925750489233	0.8653750506807543	0.1444411381990359	0.48904742823489383	0.2434051138372558	0.159011595900376	0.7708948374757967	0.5589683604829229	0.16651992802753343	1.0805761776422738	0.833272156225621	0.11982713143579218	0.9197616905630658	0.916160118487125	0.08618471033601437	0.9939208810961532	0.8831161011182198	0.1912496358021123	1.127863941773453	0.8431244782864814	0.233563810760835	0.11341436517266452	-0.19739855930722341	0.22984935956793548	-0.05252908478649456	-0.3732118879507327	0.2186124893247132	0.0020955449750777342	-0.2412006575836261	0.39515449465962715	0.16464813847706095	-0.12068481189861477	0.45003785013989317	0.31956706674845997	0.11034004595814288	0.37929768716536294	0.4125697737234493	0.33514491762557447	0.3044283902955506	0.43415244829132676	0.421655227742127	0.31262550849659215	0.4417886339305783	0.4314786442060638	0.3623000593468083	0.507921025905396	0.40730962100884105	0.08740227971585632	0.23641294800537466	-0.17999449805163334	0.04847601829327194	0.3787013226274059	0.05811411673520406	0.055847062791056896	0.4872542965869281	0.27309541330379306	0.09221124958244506	0.4764506085764598	0.3794182900101724	0.07903326813666484	0.48856928431344715	0.3975805258152537	0.052327547541491125	0.5580732244727705	0.36536315781449663
